Coordinates
version=1
nRows=14
nColumns=33
inDegrees=yes

Units are S.I. units (second, meters, Newtons, ...)
Angles are in degrees.

endheader
time	ground_thorax_rot_x	ground_thorax_rot_y	ground_thorax_rot_z	ground_thorax_tx	ground_thorax_ty	ground_thorax_tz	clav_prot_r	clav_elev_r	scapula_abduction_r	scapula_elevation_r	scapula_upward_rot_r	scapula_winging_r	shoulder_elv_r	plane_of_elev_r	axial_rot_r	elbow_flexion_r	pro_sup_r	wrist_flex_r	wrist_dev_r	clav_prot_l	clav_elev_l	scapula_abduction_l	scapula_elevation_l	scapula_upward_rot_l	scapula_winging_l	shoulder_elv_l	plane_of_elev_l	axial_rot_l	elbow_flexion_l	pro_sup_l	wrist_flex_l	wrist_dev_l	
5.7900	36.907597	22.553073	24.417110	92.033691	776.945033	-42.409858	10.749721	40.111866	34.748310	41.231981	-25.796887	-1881.116008	-1554.743160	160.797560	14.022069	0.866785	167.572856	10.883428	12.615599	-13.723858	-45.000000	-44.999974	45.000000	-45.000000	-3156.307928	86.749334	16.477908	-180.000000	721.785590	197.393082	11.891672	-14.261630	
5.8000	36.916871	22.649448	24.299381	91.985006	776.456506	-42.381151	10.736463	40.054553	34.683141	41.199286	-25.785535	-1881.161260	-1554.715859	160.790667	14.203026	0.923604	168.042430	10.982670	12.541852	-13.644042	-45.000000	-44.999953	45.000000	-45.000000	-3156.378024	86.713035	16.392671	-180.000000	721.891744	197.364963	11.738467	-14.185087	
5.8100	36.926040	22.760786	24.193295	91.885272	775.980640	-42.357136	10.744327	39.965793	34.608703	41.182474	-25.798970	-1881.213583	-1554.697529	160.769109	14.377923	0.986818	168.489968	11.104166	12.467419	-13.503492	-45.000000	-44.999915	45.000000	-45.000000	-3156.491783	86.691005	16.245154	-180.000000	721.977244	197.345428	11.559181	-14.105432	
5.8200	36.911968	22.896314	24.142748	91.684149	775.528412	-42.340487	10.734687	39.926472	34.507031	41.182713	-25.877422	-1881.211161	-1554.659587	160.760986	14.519238	1.030054	168.861928	11.181875	12.406226	-13.439524	-45.000000	-44.999848	45.000000	-45.000000	-3156.515073	86.639464	16.152861	-180.000000	722.100563	197.337042	11.432563	-14.021308	
5.8300	36.885966	23.055970	24.137397	91.372412	775.102757	-42.335140	10.722265	39.915402	34.375285	41.214336	-26.003637	-1881.168962	-1554.618452	160.755584	14.636964	1.062374	169.181754	11.225964	12.353557	-13.396167	-45.000000	-44.999727	45.000000	-45.000000	-3156.460346	86.555122	16.098332	-180.000000	722.229731	197.352807	11.344355	-13.941188	
5.8400	36.846547	23.245070	24.182365	90.937644	774.706764	-42.344594	10.710950	39.899476	34.223282	41.269811	-26.199167	-1881.096757	-1554.567223	160.751364	14.736383	1.088289	169.453565	11.265220	12.310525	-13.363801	-45.000000	-44.999512	45.000000	-45.000000	-3156.380800	86.457893	16.017863	-180.000000	722.352249	197.405499	11.261286	-13.863932	
5.8500	36.795078	23.457897	24.267982	90.381999	774.339116	-42.371157	10.703499	39.902240	34.051701	41.350389	-26.440486	-1880.994040	-1554.513954	160.754455	14.822115	1.110672	169.701078	11.280398	12.274149	-13.328437	-45.000000	-44.999125	45.000000	-45.000000	-3156.236192	86.339265	15.963818	-180.000000	722.473162	197.513221	11.204704	-13.796836	
5.8600	36.733544	23.695601	24.385804	89.714200	773.996312	-42.414830	10.707163	39.878323	33.862234	41.445609	-26.728461	-1880.881282	-1554.457178	160.749237	14.906113	1.141414	169.938252	11.305508	12.240256	-13.274202	-45.000000	-44.998434	45.000000	-45.000000	-3156.102812	86.229636	15.866806	-180.000000	722.586331	197.689303	11.131431	-13.732329	
5.8700	36.663839	23.946654	24.525935	88.943129	773.673677	-42.473093	10.717203	39.868503	33.650107	41.554902	-27.034170	-1880.750204	-1554.399645	160.739940	14.988859	1.173948	170.175183	11.307907	12.205798	-13.211369	-45.000000	-44.997193	45.000000	-45.000000	-3155.915985	86.109937	15.811162	-180.000000	722.716393	197.944946	11.077012	-13.674990	
5.8800	36.586186	24.214424	24.686184	88.073779	773.367106	-42.540768	10.735540	39.829729	33.417331	41.666824	-27.371211	-1880.618813	-1554.334855	160.713991	15.076610	1.212502	170.407674	11.324064	12.172900	-13.141064	-45.000000	-44.994976	45.000000	-45.000000	-3155.760305	86.009755	15.713510	-180.000000	722.859021	198.281528	11.001379	-13.615912	
5.8900	36.498402	24.490884	24.867374	87.107519	773.073125	-42.611493	10.761785	39.803683	33.171252	41.784852	-27.728717	-1880.481172	-1554.267146	160.687015	15.160144	1.243675	170.640475	11.321630	12.142073	-13.061689	-45.000000	-44.990990	45.000000	-45.000000	-3155.558689	85.903533	15.655799	-180.000000	723.022847	198.702082	10.944895	-13.567476	
5.9000	36.402257	24.779064	25.071534	86.042674	772.789671	-42.678959	10.787227	39.761717	32.905294	41.910728	-28.107973	-1880.343545	-1554.194228	160.650661	15.246776	1.271844	170.871470	11.319743	12.119494	-12.977558	-45.000000	-44.983888	45.000000	-45.000000	-3155.356896	85.800668	15.583998	-180.000000	723.191905	199.199251	10.881463	-13.523950	
5.9100	36.295590	25.072112	25.304868	84.877072	772.515463	-42.738434	10.811538	39.722105	32.637186	42.043605	-28.512853	-1880.209283	-1554.117125	160.614518	15.332904	1.286666	171.102623	11.303202	12.101864	-12.885481	-45.000000	-44.971063	45.000000	-45.000000	-3155.102429	85.683292	15.541978	-180.000000	723.362580	199.765093	10.834016	-13.500661	
5.9200	36.172379	25.379501	25.577408	83.608992	772.249671	-42.786893	10.832119	39.665538	32.362398	42.182980	-28.954147	-1880.077156	-1554.032872	160.578765	15.426813	1.296714	171.333836	11.289123	12.097905	-12.790842	-45.000000	-44.948376	45.000000	-45.000000	-3154.839029	85.565659	15.477636	-180.000000	723.529239	200.390826	10.780335	-13.485989	
